# 3ds Max Wavefront OBJ Exporter v0.97b - (c)2007 guruware
# File Created: 02.06.2019 20:22:19

#
# object Box002
#

v  -15.0000 0.0001 -11.0001
v  -15.0000 0.7804 11.0768
v  -15.0000 0.7805 -11.0769
v  -14.9999 0.0000 -11.0001
v  -15.0000 0.0000 -11.0001
v  -14.9999 0.0001 -11.0001
v  -14.2196 0.0001 -11.0769
v  -14.2196 0.0000 -11.0769
v  -13.4692 0.0000 -11.3045
v  -13.4692 0.0001 -11.3045
v  -12.7777 0.0000 -11.6742
v  -12.7777 0.0001 -11.6742
v  -12.1715 0.0001 -12.1716
v  -12.1715 0.0000 -12.1716
v  -11.6741 0.0001 -12.7778
v  -11.6741 0.0000 -12.7778
v  -11.3044 0.0000 -13.4693
v  -11.3044 0.0001 -13.4693
v  -11.0768 0.0000 -14.2197
v  -11.0768 0.0001 -14.2197
v  -10.9999 0.0001 -15.0000
v  11.0001 0.0001 -15.0000
v  -11.0768 0.7805 -15.0000
v  11.0769 0.7805 -15.0000
v  11.0769 0.0000 -14.2197
v  11.0001 0.0000 -15.0000
v  11.0769 0.0001 -14.2197
v  11.3045 0.0000 -13.4693
v  11.3045 0.0001 -13.4693
v  11.6742 0.0000 -12.7778
v  11.6742 0.0001 -12.7778
v  12.1716 0.0001 -12.1716
v  12.1716 0.0000 -12.1716
v  12.7778 0.0001 -11.6742
v  12.7778 0.0000 -11.6742
v  13.4693 0.0000 -11.3045
v  13.4693 0.0001 -11.3045
v  14.2197 0.0000 -11.0769
v  14.2197 0.0001 -11.0769
v  15.0000 0.0001 -11.0001
v  15.0000 0.0000 -11.0001
v  15.0000 0.7804 11.0768
v  15.0000 0.0001 11.0000
v  14.2197 0.0000 11.0768
v  15.0000 0.0000 11.0000
v  14.2197 0.0001 11.0768
v  13.4693 0.0000 11.3044
v  13.4693 0.0001 11.3044
v  12.7778 0.0000 11.6741
v  12.7778 0.0001 11.6741
v  12.1716 0.0001 12.1715
v  12.1716 0.0000 12.1715
v  11.6742 0.0000 12.7777
v  11.3045 0.0000 13.4692
v  11.3045 0.0001 13.4692
v  11.0769 0.0000 14.2196
v  11.0769 0.0001 14.2196
v  11.0000 0.0001 15.0000
v  11.0001 0.0000 15.0000
v  11.0769 0.7804 15.0000
v  11.1435 1.0000 15.0000
v  -11.1434 1.0000 15.0000
v  -10.9999 0.0000 15.0000
v  -14.9999 1.0000 -11.1435
v  -15.0000 1.0000 -11.1435
v  -14.9999 0.7805 -11.0769
v  -14.2346 0.7805 -11.1523
v  -13.4986 0.7805 -11.3756
v  -12.8204 0.7805 -11.7381
v  -12.2259 0.7805 -12.2260
v  -11.7380 0.7805 -12.8205
v  -11.3754 0.7805 -13.4987
v  -11.1522 0.7805 -14.2347
v  -11.2175 1.0000 -14.2477
v  -11.1434 1.0000 -15.0000
v  11.2176 1.0000 -14.2477
v  11.1435 1.0000 -15.0000
v  11.1523 0.7805 -14.2347
v  11.3756 0.7805 -13.4987
v  11.7381 0.7805 -12.8205
v  12.2260 0.7805 -12.2260
v  12.8205 0.7805 -11.7381
v  13.4987 0.7805 -11.3755
v  14.2347 0.7805 -11.1523
v  15.0000 0.7805 -11.0769
v  15.0000 1.0000 -11.1435
v  14.2477 1.0000 -11.2176
v  14.2477 1.0000 11.2175
v  15.0000 1.0000 11.1434
v  14.2347 0.7804 11.1522
v  13.4987 0.7804 11.3755
v  12.8205 0.7804 11.7380
v  12.2260 0.7804 12.2259
v  11.7381 0.7804 12.8204
v  11.3755 0.7804 13.4986
v  11.6742 0.0001 12.7777
v  11.1523 0.7804 14.2346
v  11.2176 1.0000 14.2476
v  11.4371 1.0000 13.5241
v  11.7935 1.0000 12.8574
v  12.2731 1.0000 12.2730
v  12.8575 1.0000 11.7934
v  13.5242 1.0000 11.4370
v  13.5242 1.0000 -11.4371
v  12.8575 1.0000 -11.7935
v  12.2731 1.0000 -12.2731
v  11.7935 1.0000 -12.8575
v  11.4371 1.0000 -13.5242
v  -11.4370 1.0000 -13.5242
v  -11.7933 1.0000 -12.8575
v  -12.2730 1.0000 -12.2731
v  -12.8574 1.0000 -11.7935
v  -13.5241 1.0000 -11.4371
v  -14.2476 1.0000 -11.2176
v  -14.9999 1.0000 11.1434
v  -15.0000 1.0000 11.1434
v  -14.9999 0.7804 11.0768
v  -14.2476 1.0000 11.2175
v  -15.0000 0.0000 11.0000
v  -14.2346 0.7804 11.1522
v  -13.5241 1.0000 11.4370
v  -14.2196 0.0000 11.0768
v  -14.9999 0.0000 11.0000
v  -13.4986 0.7804 11.3754
v  -12.8574 1.0000 11.7934
v  -13.4692 0.0000 11.3044
v  -12.8203 0.7804 11.7380
v  -12.2730 1.0000 12.2730
v  -12.2258 0.7804 12.2259
v  -11.7934 1.0000 12.8574
v  -12.7776 0.0000 11.6741
v  -11.7380 0.7804 12.8204
v  -11.4370 1.0000 13.5241
v  -11.6740 0.0000 12.7777
v  -12.1715 0.0000 12.1715
v  -11.1522 0.7804 14.2346
v  -11.2175 1.0000 14.2476
v  -11.3044 0.0000 13.4692
v  -11.3754 0.7804 13.4986
v  -11.6741 0.0000 12.7777
v  -11.1434 1.0000 14.9999
v  -11.0768 0.0000 14.2196
v  -11.0768 0.7804 15.0000
v  -11.0768 0.7804 14.9999
v  -10.9999 0.0000 14.9999
v  -11.0000 0.0000 -15.0000
v  -4.4995 1.0000 -5.3624
v  0.0000 1.0000 -7.0001
v  -2.3941 1.0000 -6.5779
v  -4.4995 0.0000 -5.3624
v  0.0000 0.0000 -7.0001
v  2.3942 0.0000 -6.5779
v  -2.3941 0.0000 -6.5779
v  -6.0622 0.0000 -3.5001
v  -6.0622 1.0000 -3.5001
v  -6.8936 0.0000 -1.2156
v  -6.8936 1.0000 -1.2156
v  -6.8936 0.0000 1.2155
v  -6.8936 1.0000 1.2155
v  -6.0622 0.0000 3.4999
v  -6.0622 1.0000 3.4999
v  -4.4995 1.0000 5.3623
v  -4.4995 0.0000 5.3623
v  -2.3941 1.0000 6.5778
v  -2.3941 0.0000 6.5778
v  2.3942 0.0000 6.5778
v  4.4995 1.0000 5.3623
v  2.3942 1.0000 6.5778
v  4.4995 0.0000 5.3623
v  6.0622 1.0000 3.4999
v  6.0622 0.0000 3.4999
v  6.8937 1.0000 1.2155
v  6.8937 0.0000 -1.2156
v  6.8937 0.0000 1.2155
v  6.0622 0.0000 -3.5001
v  6.8937 1.0000 -1.2156
v  4.4995 1.0000 -5.3624
v  6.0622 1.0000 -3.5001
v  4.4995 0.0000 -5.3624
v  2.3942 1.0000 -6.5779
v  -8.6602 1.0000 -5.0001
v  -6.4279 0.0000 -7.6605
v  -6.4279 1.0000 -7.6605
v  -3.4202 0.0000 -9.3970
v  -3.4202 1.0000 -9.3970
v  0.0000 0.0000 -10.0001
v  0.0000 1.0000 -10.0001
v  3.4202 0.0000 -9.3970
v  3.4202 1.0000 -9.3970
v  6.4279 0.0000 -7.6605
v  6.4279 1.0000 -7.6605
v  8.6603 0.0000 -5.0001
v  8.6603 1.0000 -5.0001
v  9.8481 0.0000 -1.7365
v  9.8481 1.0000 -1.7365
v  9.8481 1.0000 1.7364
v  9.8481 0.0000 1.7364
v  8.6603 1.0000 4.9999
v  8.6603 0.0000 4.9999
v  6.4279 1.0000 7.6604
v  6.4279 0.0000 7.6604
v  3.4202 1.0000 9.3969
v  3.4202 0.0000 9.3969
v  -6.4279 0.0000 7.6604
v  -3.4202 1.0000 9.3969
v  -3.4202 0.0000 9.3969
v  -8.6602 0.0000 4.9999
v  -6.4279 1.0000 7.6604
v  -9.8481 1.0000 1.7364
v  -8.6602 1.0000 4.9999
v  -9.8481 0.0000 1.7364
v  -9.8481 1.0000 -1.7365
v  -9.8481 0.0000 -1.7365
v  -8.6602 0.0000 -5.0001
# 214 vertices

vn -1.0000 0.0000 -0.0000
vn 0.0007 0.0940 -0.9956
vn 0.1060 0.1023 -0.9891
vn 0.0925 -0.0014 -0.9957
vn -0.0045 -0.0039 -1.0000
vn -0.1949 -0.0035 -0.9808
vn -0.1946 0.0909 -0.9767
vn -0.3808 0.0980 -0.9195
vn -0.3827 0.0000 -0.9239
vn -0.5532 0.0928 -0.8279
vn -0.5556 -0.0026 -0.8315
vn -0.7071 -0.0035 -0.7071
vn -0.7042 0.0911 -0.7042
vn -0.8315 -0.0026 -0.5556
vn -0.8279 0.0929 -0.5532
vn -0.9194 0.0982 -0.3808
vn -0.9239 0.0001 -0.3827
vn -0.9767 0.0910 -0.1946
vn -0.9808 -0.0035 -0.1949
vn -0.9952 0.0024 -0.0980
vn 0.0000 0.0000 -1.0000
vn 0.9765 0.0927 -0.1946
vn 0.9897 0.1044 -0.0975
vn 0.9808 -0.0027 -0.1949
vn 0.9193 0.0999 -0.3807
vn 0.9239 0.0009 -0.3827
vn 0.8277 0.0946 -0.5531
vn 0.8315 -0.0017 -0.5556
vn 0.7071 -0.0026 -0.7071
vn 0.7041 0.0928 -0.7041
vn 0.5556 -0.0017 -0.8315
vn 0.5531 0.0946 -0.8277
vn 0.3807 0.0998 -0.9193
vn 0.3827 0.0009 -0.9239
vn 0.1946 0.0927 -0.9765
vn 0.1949 -0.0027 -0.9808
vn 0.0980 -0.0030 -0.9952
vn 0.0976 0.0914 -0.9910
vn 1.0000 0.0000 -0.0000
vn 0.1943 0.0895 0.9769
vn 0.0975 0.1046 0.9897
vn 0.1951 -0.0043 0.9808
vn 0.3810 0.0944 0.9197
vn 0.3826 -0.0018 0.9239
vn 0.5532 0.0876 0.8284
vn 0.5557 -0.0052 0.8314
vn 0.7074 -0.0056 0.7068
vn 0.7039 0.0867 0.7050
vn 0.8285 0.0875 0.5532
vn 0.9197 0.0943 0.3810
vn 0.9239 -0.0018 0.3826
vn 0.9768 0.0895 0.1943
vn 0.9808 -0.0042 0.1951
vn 0.9952 -0.0051 0.0980
vn 0.9914 0.0873 0.0976
vn 0.0000 0.0000 1.0000
vn 0.0000 -0.0000 1.0000
vn -0.0045 -0.2903 -0.9569
vn 0.0872 -0.1954 -0.9768
vn 0.0851 -0.2892 -0.9535
vn -0.0044 -0.1940 -0.9810
vn -0.1914 -0.1939 -0.9622
vn -0.3754 -0.1939 -0.9063
vn -0.5450 -0.1939 -0.8157
vn -0.6937 -0.1939 -0.6937
vn -0.8157 -0.1939 -0.5450
vn -0.9063 -0.1939 -0.3754
vn -0.9622 -0.1939 -0.1914
vn -0.9765 -0.1930 -0.0962
vn -0.9386 -0.2903 -0.1867
vn -0.9527 -0.2890 -0.0938
vn 0.9386 -0.2903 -0.1867
vn 0.9765 -0.1930 -0.0962
vn 0.9527 -0.2890 -0.0938
vn 0.9952 0.0034 -0.0980
vn 0.9622 -0.1939 -0.1914
vn 0.9063 -0.1939 -0.3754
vn 0.8157 -0.1939 -0.5450
vn 0.6937 -0.1939 -0.6937
vn 0.5450 -0.1939 -0.8157
vn 0.3754 -0.1939 -0.9063
vn 0.1914 -0.1939 -0.9622
vn 0.0962 -0.1930 -0.9765
vn 0.0938 -0.2890 -0.9527
vn 0.1867 -0.2903 -0.9386
vn 0.1867 -0.2903 0.9386
vn 0.0962 -0.1930 0.9765
vn 0.0938 -0.2890 0.9527
vn 0.1914 -0.1939 0.9622
vn 0.0980 0.0035 0.9952
vn 0.3754 -0.1939 0.9063
vn 0.5450 -0.1939 0.8157
vn 0.6937 -0.1939 0.6937
vn 0.8157 -0.1939 0.5450
vn 0.9063 -0.1939 0.3754
vn 0.8314 -0.0053 0.5557
vn 0.9622 -0.1939 0.1914
vn 0.9765 -0.1930 0.0962
vn 0.9527 -0.2890 0.0938
vn 0.9386 -0.2903 0.1867
vn 0.8841 -0.2903 0.3662
vn 0.7957 -0.2903 0.5316
vn 0.6767 -0.2903 0.6767
vn 0.5316 -0.2903 0.7957
vn 0.3662 -0.2903 0.8841
vn 0.3662 -0.2903 -0.8841
vn 0.5316 -0.2903 -0.7957
vn 0.6767 -0.2903 -0.6767
vn 0.7957 -0.2903 -0.5316
vn 0.8841 -0.2903 -0.3662
vn -0.8841 -0.2903 -0.3662
vn -0.7957 -0.2903 -0.5316
vn -0.6767 -0.2903 -0.6767
vn -0.5316 -0.2903 -0.7957
vn -0.3662 -0.2903 -0.8841
vn -0.1867 -0.2903 -0.9386
vn 0.0039 -0.2903 0.9569
vn 0.1015 -0.2888 0.9520
vn -0.0025 -0.1940 0.9810
vn -0.1867 -0.2903 0.9386
vn 0.0929 0.0139 0.9956
vn 0.0911 -0.1954 0.9765
vn -0.1914 -0.1939 0.9622
vn -0.3662 -0.2903 0.8841
vn -0.1962 0.0187 0.9804
vn -0.0026 0.1254 0.9921
vn 0.0922 0.1250 0.9879
vn -0.3754 -0.1939 0.9063
vn -0.5316 -0.2903 0.7957
vn -0.3836 -0.0078 0.9234
vn -0.1910 0.1353 0.9722
vn -0.0025 0.0137 0.9999
vn -0.5450 -0.1939 0.8157
vn -0.6767 -0.2903 0.6767
vn -0.3794 0.0823 0.9216
vn -0.6937 -0.1939 0.6937
vn -0.7957 -0.2903 0.5316
vn -0.5560 -0.0055 0.8312
vn -0.5526 0.0870 0.8289
vn -0.8157 -0.1939 0.5450
vn -0.8841 -0.2903 0.3662
vn -0.8316 0.0205 0.5550
vn -0.6989 0.1329 0.7028
vn -0.9622 -0.1939 0.1914
vn -0.9386 -0.2903 0.1867
vn -0.9236 0.0210 0.3829
vn -0.9063 -0.1939 0.3754
vn -0.8228 0.1390 0.5511
vn -0.7080 0.0175 0.7060
vn -0.9569 -0.2903 -0.0024
vn -0.9809 0.0126 0.1943
vn -0.9150 0.1399 0.3783
vn -0.9755 -0.1953 -0.1009
vn -0.9523 -0.2889 -0.0986
vn -0.9810 -0.1939 -0.0024
vn -0.9730 0.1231 0.1951
vn -0.9946 0.0139 -0.1029
vn -0.9921 0.1255 -0.0025
vn -0.9869 0.1249 -0.1021
vn -0.9900 0.1024 -0.0975
vn 0.0000 1.0000 -0.0000
vn 0.0000 -1.0000 -0.0000
vn -0.3420 0.0000 -0.9397
vn -0.6428 0.0000 -0.7660
vn -0.8660 0.0000 -0.5000
vn -0.9848 0.0000 -0.1736
vn -0.9848 0.0000 0.1736
vn -0.8660 0.0000 0.5000
vn -0.6428 0.0000 0.7660
vn -0.9397 0.0000 0.3420
vn 0.9397 0.0000 0.3420
vn 0.6428 0.0000 0.7660
vn 0.8660 0.0000 0.5000
vn 0.9848 0.0000 0.1736
vn 0.9848 0.0000 -0.1736
vn 0.8660 0.0000 -0.5000
vn 0.6428 0.0000 -0.7660
vn 0.3420 0.0000 -0.9397
vn 0.3420 0.0000 0.9397
vn 0.1736 0.0000 0.9848
vn -0.1736 0.0000 0.9848
vn -0.0713 -0.9119 0.4041
vn -0.5000 0.0000 0.8660
vn -0.9999 0.0137 -0.0024
# 184 vertex normals

o Box002
g Box002
f 1//1 2//1 3//1 
f 4//2 5//3 1//4 
f 4//2 6//5 7//6 
f 7//6 8//7 4//2 
f 9//8 8//7 10//9 
f 11//10 9//8 12//11 
f 11//10 12//11 13//12 
f 13//12 14//13 11//10 
f 14//13 13//12 15//14 
f 15//14 16//15 14//13 
f 17//16 16//15 18//17 
f 19//18 17//16 20//19 
f 20//19 21//20 19//18 
f 22//21 23//21 24//21 
f 25//22 26//23 27//24 
f 28//25 25//22 29//26 
f 30//27 28//25 31//28 
f 30//27 31//28 32//29 
f 32//29 33//30 30//27 
f 33//30 32//29 34//31 
f 34//31 35//32 33//30 
f 36//33 35//32 37//34 
f 38//35 36//33 39//36 
f 40//37 41//38 38//35 
f 38//35 39//36 40//37 
f 40//39 42//39 43//39 
f 44//40 45//41 46//42 
f 47//43 44//40 48//44 
f 49//45 47//43 50//46 
f 49//45 50//46 51//47 
f 51//47 52//48 49//45 
f 51//47 53//49 52//48 
f 54//50 53//49 55//51 
f 56//52 54//50 57//53 
f 56//52 57//53 58//54 
f 58//54 59//55 56//52 
f 60//56 61//56 62//56 
f 58//57 60//56 62//56 
f 63//57 59//56 58//57 
f 64//58 3//59 65//60 
f 66//61 1//4 3//59 
f 7//6 66//61 67//62 
f 10//9 67//62 68//63 
f 12//11 68//63 69//64 
f 13//12 69//64 70//65 
f 15//14 70//65 71//66 
f 72//67 15//14 71//66 
f 73//68 18//17 72//67 
f 21//20 73//68 23//69 
f 23//69 74//70 75//71 
f 76//72 24//73 77//74 
f 24//73 27//24 22//75 
f 29//26 78//76 79//77 
f 31//28 79//77 80//78 
f 81//79 31//28 80//78 
f 82//80 32//29 81//79 
f 37//34 82//80 83//81 
f 84//82 37//34 83//81 
f 39//36 85//83 40//37 
f 86//84 84//82 87//85 
f 88//86 42//87 89//88 
f 90//89 43//90 42//87 
f 48//44 90//89 91//91 
f 50//46 91//91 92//92 
f 51//47 92//92 93//93 
f 94//94 51//47 93//93 
f 95//95 96//96 94//94 
f 97//97 55//51 95//95 
f 58//54 97//97 60//98 
f 61//99 97//97 98//100 
f 98//100 95//95 99//101 
f 99//101 94//94 100//102 
f 94//94 101//103 100//102 
f 101//103 92//92 102//104 
f 102//104 91//91 103//105 
f 91//91 88//86 103//105 
f 87//85 83//81 104//106 
f 104//106 82//80 105//107 
f 82//80 106//108 105//107 
f 106//108 80//78 107//109 
f 80//78 108//110 107//109 
f 108//110 78//76 76//72 
f 74//70 72//67 109//111 
f 72//67 110//112 109//111 
f 71//66 111//113 110//112 
f 111//113 69//64 112//114 
f 69//64 113//115 112//114 
f 113//115 67//62 114//116 
f 67//62 64//58 114//116 
f 115//117 116//118 117//119 
f 117//119 118//120 115//117 
f 119//121 117//119 2//122 
f 120//123 121//124 118//120 
f 117//119 122//125 120//123 
f 123//126 119//121 119//127 
f 124//128 125//129 121//124 
f 120//123 126//130 124//128 
f 123//126 122//131 123//132 
f 127//133 128//134 125//129 
f 126//130 127//133 124//128 
f 122//131 126//135 122//125 
f 129//136 130//137 128//134 
f 131//138 129//136 127//133 
f 131//139 126//130 126//135 
f 132//140 133//141 130//137 
f 129//136 134//142 132//140 
f 131//139 135//143 131//138 
f 133//141 136//144 137//145 
f 132//140 138//146 139//147 
f 140//148 135//149 135//143 
f 136//144 141//150 137//145 
f 139//147 142//151 136//144 
f 138//152 134//142 140//148 
f 141//150 143//153 62//154 
f 142//151 144//155 136//144 
f 138//152 142//156 138//146 
f 144//155 63//157 143//153 
f 145//158 142//151 142//156 
f 63//157 145//158 63//159 
f 1//4 6//5 4//2 
f 8//7 7//6 10//9 
f 9//8 10//9 12//11 
f 16//15 15//14 18//17 
f 17//16 18//17 20//19 
f 21//20 146//160 19//18 
f 26//23 22//75 27//24 
f 25//22 27//24 29//26 
f 28//25 29//26 31//28 
f 35//32 34//31 37//34 
f 36//33 37//34 39//36 
f 45//41 43//90 46//42 
f 44//40 46//42 48//44 
f 47//43 48//44 50//46 
f 53//49 96//96 55//51 
f 54//50 55//51 57//53 
f 116//118 2//122 117//119 
f 122//131 122//125 123//132 
f 126//135 126//130 122//125 
f 135//143 135//149 131//138 
f 142//156 142//151 138//146 
f 147//161 148//161 149//161 
f 150//162 151//162 152//162 
f 148//21 153//163 149//163 
f 149//163 150//164 147//164 
f 147//164 154//165 155//165 
f 155//165 156//166 157//166 
f 157//166 158//167 159//167 
f 159//167 160//168 161//168 
f 162//169 160//168 163//169 
f 164//170 163//169 165//170 
f 166//171 167//172 168//171 
f 169//172 170//173 167//172 
f 171//173 172//174 170//173 
f 173//175 172//174 174//174 
f 175//176 176//175 173//175 
f 175//176 177//177 178//176 
f 179//177 180//178 177//177 
f 151//21 180//178 152//178 
f 181//173 182//172 183//172 
f 183//172 184//179 185//179 
f 185//179 186//180 187//180 
f 187//181 188//182 189//181 
f 189//183 190//169 191//169 
f 191//169 192//168 193//168 
f 193//168 194//167 195//167 
f 196//166 194//167 197//166 
f 198//165 197//166 199//165 
f 200//164 199//165 201//164 
f 202//178 201//164 203//178 
f 204//177 205//163 206//163 
f 207//176 208//177 204//177 
f 207//176 209//175 210//176 
f 211//175 212//174 209//175 
f 213//174 181//173 212//174 
f 205//163 165//170 206//163 
f 166//171 202//178 203//178 
f 65//1 2//1 116//1 
f 3//1 2//1 65//1 
f 119//1 5//1 119//1 
f 119//1 1//1 5//1 
f 2//1 1//1 119//1 
f 24//21 75//21 77//21 
f 24//21 23//21 75//21 
f 146//21 22//21 26//21 
f 21//21 22//21 146//21 
f 23//21 22//21 21//21 
f 42//39 86//39 89//39 
f 42//39 85//39 86//39 
f 41//39 43//39 45//39 
f 40//39 43//39 41//39 
f 42//39 40//39 85//39 
f 53//49 51//47 96//96 
f 143//56 58//57 62//56 
f 63//57 58//57 143//56 
f 59//56 63//57 63//57 
f 3//59 64//58 66//61 
f 1//4 66//61 6//5 
f 66//61 7//6 6//5 
f 67//62 10//9 7//6 
f 68//63 12//11 10//9 
f 69//64 13//12 12//11 
f 70//65 15//14 13//12 
f 15//14 72//67 18//17 
f 18//17 73//68 20//19 
f 73//68 21//20 20//19 
f 74//70 23//69 73//68 
f 24//73 76//72 78//76 
f 27//24 24//73 78//76 
f 78//76 29//26 27//24 
f 79//77 31//28 29//26 
f 31//28 81//79 32//29 
f 32//29 82//80 34//31 
f 82//80 37//34 34//31 
f 37//34 84//82 39//36 
f 85//83 39//36 84//82 
f 84//82 86//84 85//83 
f 42//87 88//86 90//89 
f 43//90 90//89 46//42 
f 90//89 48//44 46//42 
f 91//91 50//46 48//44 
f 92//92 51//47 50//46 
f 51//47 94//94 96//96 
f 96//96 95//95 55//51 
f 55//51 97//97 57//53 
f 97//97 58//54 57//53 
f 97//97 61//99 60//98 
f 95//95 98//100 97//97 
f 94//94 99//101 95//95 
f 101//103 94//94 93//93 
f 92//92 101//103 93//93 
f 91//91 102//104 92//92 
f 88//86 91//91 90//89 
f 83//81 87//85 84//82 
f 82//80 104//106 83//81 
f 106//108 82//80 81//79 
f 80//78 106//108 81//79 
f 108//110 80//78 79//77 
f 78//76 108//110 79//77 
f 72//67 74//70 73//68 
f 110//112 72//67 71//66 
f 111//113 71//66 70//65 
f 69//64 111//113 70//65 
f 113//115 69//64 68//63 
f 67//62 113//115 68//63 
f 64//58 67//62 66//61 
f 118//120 117//119 120//123 
f 117//119 119//121 123//132 
f 121//124 120//123 124//128 
f 122//125 117//119 123//132 
f 119//121 123//126 123//132 
f 125//129 124//128 127//133 
f 126//130 120//123 122//125 
f 128//134 127//133 129//136 
f 127//133 126//130 131//138 
f 130//137 129//136 132//140 
f 129//136 131//138 135//149 
f 126//130 131//139 131//138 
f 133//141 132//140 139//147 
f 134//142 129//136 135//149 
f 136//144 133//141 139//147 
f 138//146 132//140 134//142 
f 135//149 140//148 134//142 
f 141//150 136//144 144//155 
f 142//151 139//147 138//146 
f 134//142 138//152 138//146 
f 143//153 141//150 144//155 
f 144//155 142//151 145//184 
f 63//157 144//155 145//184 
f 142//151 145//158 145//184 
f 145//158 63//157 145//184 
f 115//161 65//161 116//161 
f 61//161 141//161 62//161 
f 115//161 64//161 65//161 
f 130//161 208//161 128//161 
f 210//161 128//161 208//161 
f 210//161 125//161 128//161 
f 210//161 121//161 125//161 
f 98//161 141//161 61//161 
f 98//161 137//161 141//161 
f 74//161 77//161 75//161 
f 74//161 76//161 77//161 
f 87//161 89//161 86//161 
f 87//161 88//161 89//161 
f 118//161 64//161 115//161 
f 118//161 114//161 64//161 
f 133//161 208//161 130//161 
f 133//161 205//161 208//161 
f 137//161 205//161 133//161 
f 98//161 205//161 137//161 
f 99//161 205//161 98//161 
f 99//161 164//161 205//161 
f 109//161 76//161 74//161 
f 109//161 108//161 76//161 
f 104//161 88//161 87//161 
f 104//161 103//161 88//161 
f 121//161 114//161 118//161 
f 121//161 113//161 114//161 
f 110//161 108//161 109//161 
f 110//161 107//161 108//161 
f 105//161 103//161 104//161 
f 105//161 102//161 103//161 
f 121//161 112//161 113//161 
f 209//161 121//161 210//161 
f 209//161 112//161 121//161 
f 212//161 112//161 209//161 
f 181//161 112//161 212//161 
f 183//161 112//161 181//161 
f 183//161 111//161 112//161 
f 183//161 110//161 111//161 
f 185//161 110//161 183//161 
f 185//161 107//161 110//161 
f 187//161 107//161 185//161 
f 189//161 107//161 187//161 
f 191//161 107//161 189//161 
f 191//161 106//161 107//161 
f 193//161 106//161 191//161 
f 193//161 105//161 106//161 
f 195//161 105//161 193//161 
f 195//161 102//161 105//161 
f 196//161 102//161 195//161 
f 198//161 102//161 196//161 
f 200//161 102//161 198//161 
f 200//161 101//161 102//161 
f 200//161 100//161 101//161 
f 200//161 99//161 100//161 
f 202//161 99//161 200//161 
f 202//161 164//161 99//161 
f 168//161 164//161 202//161 
f 168//161 162//161 164//161 
f 168//161 161//161 162//161 
f 168//161 159//161 161//161 
f 168//161 157//161 159//161 
f 168//161 155//161 157//161 
f 167//161 155//161 168//161 
f 170//161 155//161 167//161 
f 172//161 155//161 170//161 
f 172//161 147//161 155//161 
f 176//161 147//161 172//161 
f 178//161 147//161 176//161 
f 177//161 147//161 178//161 
f 180//161 147//161 177//161 
f 148//161 147//161 180//161 
f 4//162 119//162 5//162 
f 145//162 59//162 63//162 
f 4//162 123//162 119//162 
f 204//162 140//162 135//162 
f 135//162 207//162 204//162 
f 131//162 207//162 135//162 
f 126//162 207//162 131//162 
f 145//162 56//162 59//162 
f 142//162 56//162 145//162 
f 4//162 122//162 123//162 
f 8//162 122//162 4//162 
f 26//162 19//162 146//162 
f 25//162 19//162 26//162 
f 45//162 38//162 41//162 
f 44//162 38//162 45//162 
f 206//162 140//162 204//162 
f 206//162 138//162 140//162 
f 206//162 142//162 138//162 
f 206//162 56//162 142//162 
f 206//162 54//162 56//162 
f 165//162 54//162 206//162 
f 8//162 126//162 122//162 
f 9//162 126//162 8//162 
f 25//162 17//162 19//162 
f 28//162 17//162 25//162 
f 44//162 36//162 38//162 
f 47//162 36//162 44//162 
f 11//162 126//162 9//162 
f 28//162 16//162 17//162 
f 30//162 16//162 28//162 
f 47//162 35//162 36//162 
f 49//162 35//162 47//162 
f 126//162 211//162 207//162 
f 11//162 211//162 126//162 
f 11//162 213//162 211//162 
f 11//162 214//162 213//162 
f 11//162 182//162 214//162 
f 14//162 182//162 11//162 
f 16//162 182//162 14//162 
f 16//162 184//162 182//162 
f 30//162 184//162 16//162 
f 30//162 186//182 184//162 
f 30//162 188//182 186//182 
f 30//162 190//162 188//182 
f 33//162 190//162 30//162 
f 33//162 192//162 190//162 
f 35//162 192//162 33//162 
f 35//162 194//162 192//162 
f 49//162 194//162 35//162 
f 49//162 197//162 194//162 
f 49//162 199//162 197//162 
f 49//162 201//162 199//162 
f 52//162 201//162 49//162 
f 53//162 201//162 52//162 
f 53//162 203//162 201//162 
f 54//162 203//162 53//162 
f 165//162 203//162 54//162 
f 165//162 166//162 203//162 
f 163//162 166//162 165//162 
f 160//162 166//162 163//162 
f 158//162 166//162 160//162 
f 156//162 166//162 158//162 
f 154//162 166//162 156//162 
f 154//162 169//162 166//162 
f 154//162 171//162 169//162 
f 154//162 174//162 171//162 
f 150//162 174//162 154//162 
f 150//162 173//162 174//162 
f 150//162 175//162 173//162 
f 150//162 179//162 175//162 
f 150//162 152//162 179//162 
f 151//162 150//162 153//162 
f 153//163 148//21 151//21 
f 150//164 149//163 153//163 
f 154//165 147//164 150//164 
f 156//166 155//165 154//165 
f 158//167 157//166 156//166 
f 160//168 159//167 158//167 
f 160//168 162//169 161//168 
f 163//169 164//170 162//169 
f 167//172 166//171 169//172 
f 170//173 169//172 171//173 
f 172//174 171//173 174//174 
f 172//174 173//175 176//175 
f 176//175 175//176 178//176 
f 177//177 175//176 179//177 
f 180//178 179//177 152//178 
f 180//178 151//21 148//21 
f 182//172 181//173 214//173 
f 184//179 183//172 182//172 
f 186//180 185//179 184//179 
f 188//182 187//181 186//182 
f 190//169 189//183 188//183 
f 192//168 191//169 190//169 
f 194//167 193//168 192//168 
f 194//167 196//166 195//167 
f 197//166 198//165 196//166 
f 199//165 200//164 198//165 
f 201//164 202//178 200//164 
f 205//163 204//177 208//177 
f 208//177 207//176 210//176 
f 209//175 207//176 211//175 
f 212//174 211//175 213//174 
f 181//173 213//174 214//173 
f 165//170 205//163 164//170 
f 202//178 166//171 168//171 
# 448 faces

